<mxfile host="app.diagrams.net" modified="2024-07-23T20:59:40.921Z" agent="Mozilla/5.0 (X11; Linux x86_64) AppleWebKit/537.36 (KHTML, like Gecko) Chrome/126.0.0.0 Safari/537.36" etag="q8AZ4TZKoxTs6wvDYjXe" version="24.7.1" type="github">
  <diagram name="Page-1" id="y5-NePWyKyB3006rCJuu">
    <mxGraphModel dx="1434" dy="786" grid="1" gridSize="10" guides="1" tooltips="1" connect="1" arrows="1" fold="1" page="1" pageScale="1" pageWidth="827" pageHeight="1169" math="0" shadow="0">
      <root>
        <mxCell id="0" />
        <mxCell id="1" parent="0" />
        <mxCell id="bwaj0blokZmfMLX8B4m3-4" value="" style="rounded=0;whiteSpace=wrap;html=1;" parent="1" vertex="1">
          <mxGeometry x="50" y="70" width="1150" height="640" as="geometry" />
        </mxCell>
        <mxCell id="bwaj0blokZmfMLX8B4m3-1" value="Employé" style="shape=umlActor;verticalLabelPosition=bottom;verticalAlign=top;html=1;outlineConnect=0;" parent="1" vertex="1">
          <mxGeometry x="80" y="330" width="30" height="60" as="geometry" />
        </mxCell>
        <mxCell id="bwaj0blokZmfMLX8B4m3-7" value="" style="rounded=0;whiteSpace=wrap;html=1;" parent="1" vertex="1">
          <mxGeometry x="140" y="105" width="1020" height="570" as="geometry" />
        </mxCell>
        <mxCell id="bwaj0blokZmfMLX8B4m3-8" value="Système (Kiodc - module CLIC)" style="text;html=1;align=center;verticalAlign=middle;whiteSpace=wrap;rounded=0;" parent="1" vertex="1">
          <mxGeometry x="140" y="110" width="180" height="30" as="geometry" />
        </mxCell>
        <mxCell id="bwaj0blokZmfMLX8B4m3-15" value="" style="group" parent="1" vertex="1" connectable="0">
          <mxGeometry x="460" y="470" width="170" height="90" as="geometry" />
        </mxCell>
        <mxCell id="bwaj0blokZmfMLX8B4m3-11" value="" style="ellipse;whiteSpace=wrap;html=1;" parent="bwaj0blokZmfMLX8B4m3-15" vertex="1">
          <mxGeometry x="10" width="150" height="90" as="geometry" />
        </mxCell>
        <mxCell id="bwaj0blokZmfMLX8B4m3-12" value=" Choisir le modèle" style="text;strokeColor=none;fillColor=none;align=center;verticalAlign=middle;spacingLeft=4;spacingRight=4;overflow=hidden;points=[[0,0.5],[1,0.5]];portConstraint=eastwest;rotatable=0;whiteSpace=wrap;html=1;" parent="bwaj0blokZmfMLX8B4m3-15" vertex="1">
          <mxGeometry y="30" width="170" height="30" as="geometry" />
        </mxCell>
        <mxCell id="bwaj0blokZmfMLX8B4m3-17" value="" style="group" parent="1" vertex="1" connectable="0">
          <mxGeometry x="580" y="120" width="120" height="80" as="geometry" />
        </mxCell>
        <mxCell id="bwaj0blokZmfMLX8B4m3-13" value="" style="ellipse;whiteSpace=wrap;html=1;" parent="bwaj0blokZmfMLX8B4m3-17" vertex="1">
          <mxGeometry x="7.058823529411765" width="105.88235294117646" height="80" as="geometry" />
        </mxCell>
        <mxCell id="bwaj0blokZmfMLX8B4m3-14" value=" ajouter" style="text;strokeColor=none;fillColor=none;align=center;verticalAlign=middle;spacingLeft=4;spacingRight=4;overflow=hidden;points=[[0,0.5],[1,0.5]];portConstraint=eastwest;rotatable=0;whiteSpace=wrap;html=1;" parent="bwaj0blokZmfMLX8B4m3-17" vertex="1">
          <mxGeometry y="26.666666666666668" width="119.99999999999999" height="26.666666666666668" as="geometry" />
        </mxCell>
        <mxCell id="bwaj0blokZmfMLX8B4m3-18" value="" style="group" parent="1" vertex="1" connectable="0">
          <mxGeometry x="250" y="310" width="170" height="90" as="geometry" />
        </mxCell>
        <mxCell id="bwaj0blokZmfMLX8B4m3-19" value="" style="ellipse;whiteSpace=wrap;html=1;" parent="bwaj0blokZmfMLX8B4m3-18" vertex="1">
          <mxGeometry x="10" width="150" height="90" as="geometry" />
        </mxCell>
        <mxCell id="bwaj0blokZmfMLX8B4m3-20" value="Créer un template&amp;nbsp;&lt;div&gt;de courrier&lt;/div&gt;" style="text;strokeColor=none;fillColor=none;align=center;verticalAlign=middle;spacingLeft=4;spacingRight=4;overflow=hidden;points=[[0,0.5],[1,0.5]];portConstraint=eastwest;rotatable=0;whiteSpace=wrap;html=1;" parent="bwaj0blokZmfMLX8B4m3-18" vertex="1">
          <mxGeometry y="30" width="170" height="30" as="geometry" />
        </mxCell>
        <mxCell id="bwaj0blokZmfMLX8B4m3-21" value="" style="group" parent="1" vertex="1" connectable="0">
          <mxGeometry x="780" y="240" width="120" height="80" as="geometry" />
        </mxCell>
        <mxCell id="bwaj0blokZmfMLX8B4m3-22" value="" style="ellipse;whiteSpace=wrap;html=1;" parent="bwaj0blokZmfMLX8B4m3-21" vertex="1">
          <mxGeometry x="7.058823529411765" width="105.88235294117646" height="80" as="geometry" />
        </mxCell>
        <mxCell id="bwaj0blokZmfMLX8B4m3-23" value=" supprimer" style="text;strokeColor=none;fillColor=none;align=center;verticalAlign=middle;spacingLeft=4;spacingRight=4;overflow=hidden;points=[[0,0.5],[1,0.5]];portConstraint=eastwest;rotatable=0;whiteSpace=wrap;html=1;" parent="bwaj0blokZmfMLX8B4m3-21" vertex="1">
          <mxGeometry y="26.666666666666668" width="119.99999999999999" height="26.666666666666668" as="geometry" />
        </mxCell>
        <mxCell id="bwaj0blokZmfMLX8B4m3-24" value="" style="group" parent="1" vertex="1" connectable="0">
          <mxGeometry x="740" y="140" width="120" height="80" as="geometry" />
        </mxCell>
        <mxCell id="bwaj0blokZmfMLX8B4m3-25" value="" style="ellipse;whiteSpace=wrap;html=1;" parent="bwaj0blokZmfMLX8B4m3-24" vertex="1">
          <mxGeometry x="7.058823529411765" width="105.88235294117646" height="80" as="geometry" />
        </mxCell>
        <mxCell id="bwaj0blokZmfMLX8B4m3-26" value=" modifier" style="text;strokeColor=none;fillColor=none;align=center;verticalAlign=middle;spacingLeft=4;spacingRight=4;overflow=hidden;points=[[0,0.5],[1,0.5]];portConstraint=eastwest;rotatable=0;whiteSpace=wrap;html=1;" parent="bwaj0blokZmfMLX8B4m3-24" vertex="1">
          <mxGeometry y="26.666666666666668" width="119.99999999999999" height="26.666666666666668" as="geometry" />
        </mxCell>
        <mxCell id="bwaj0blokZmfMLX8B4m3-27" value="" style="group" parent="1" vertex="1" connectable="0">
          <mxGeometry x="540" y="290" width="130" height="100" as="geometry" />
        </mxCell>
        <mxCell id="bwaj0blokZmfMLX8B4m3-28" value="" style="ellipse;whiteSpace=wrap;html=1;" parent="bwaj0blokZmfMLX8B4m3-27" vertex="1">
          <mxGeometry x="7.058823529411765" width="105.88235294117646" height="80" as="geometry" />
        </mxCell>
        <mxCell id="bwaj0blokZmfMLX8B4m3-29" value=" visualiser" style="text;strokeColor=none;fillColor=none;align=center;verticalAlign=middle;spacingLeft=4;spacingRight=4;overflow=hidden;points=[[0,0.5],[1,0.5]];portConstraint=eastwest;rotatable=0;whiteSpace=wrap;html=1;" parent="bwaj0blokZmfMLX8B4m3-27" vertex="1">
          <mxGeometry y="26.666666666666668" width="119.99999999999999" height="26.666666666666668" as="geometry" />
        </mxCell>
        <mxCell id="bwaj0blokZmfMLX8B4m3-16" value="" style="group" parent="bwaj0blokZmfMLX8B4m3-27" vertex="1" connectable="0">
          <mxGeometry x="-50" y="-40" width="180" height="140" as="geometry" />
        </mxCell>
        <mxCell id="bwaj0blokZmfMLX8B4m3-9" value="" style="ellipse;whiteSpace=wrap;html=1;" parent="bwaj0blokZmfMLX8B4m3-16" vertex="1">
          <mxGeometry x="10.588235294117647" width="158.82352941176472" height="140" as="geometry" />
        </mxCell>
        <mxCell id="bwaj0blokZmfMLX8B4m3-10" value=" Gérer les templates&amp;nbsp;&lt;div&gt;de courrier dans les&amp;nbsp;&lt;/div&gt;&lt;div&gt;paramètres&lt;/div&gt;" style="text;strokeColor=none;fillColor=none;align=center;verticalAlign=middle;spacingLeft=4;spacingRight=4;overflow=hidden;points=[[0,0.5],[1,0.5]];portConstraint=eastwest;rotatable=0;whiteSpace=wrap;html=1;" parent="bwaj0blokZmfMLX8B4m3-16" vertex="1">
          <mxGeometry y="46.66666666666667" width="180" height="46.66666666666667" as="geometry" />
        </mxCell>
        <mxCell id="bwaj0blokZmfMLX8B4m3-40" value="&amp;lt;&amp;lt;include&amp;gt;&amp;gt;" style="endArrow=open;endSize=12;dashed=1;html=1;rounded=0;exitX=0;exitY=1;exitDx=0;exitDy=0;" parent="1" source="bwaj0blokZmfMLX8B4m3-13" target="bwaj0blokZmfMLX8B4m3-9" edge="1">
          <mxGeometry width="160" relative="1" as="geometry">
            <mxPoint x="580" y="190" as="sourcePoint" />
            <mxPoint x="690" y="400" as="targetPoint" />
          </mxGeometry>
        </mxCell>
        <mxCell id="bwaj0blokZmfMLX8B4m3-41" value="&amp;lt;&amp;lt;include&amp;gt;&amp;gt;" style="endArrow=open;endSize=12;dashed=1;html=1;rounded=0;entryX=0.083;entryY=1.212;entryDx=0;entryDy=0;entryPerimeter=0;" parent="1" source="bwaj0blokZmfMLX8B4m3-9" target="bwaj0blokZmfMLX8B4m3-26" edge="1">
          <mxGeometry width="160" relative="1" as="geometry">
            <mxPoint x="555" y="322" as="sourcePoint" />
            <mxPoint x="597" y="267" as="targetPoint" />
          </mxGeometry>
        </mxCell>
        <mxCell id="bwaj0blokZmfMLX8B4m3-42" value="&amp;lt;&amp;lt;include&amp;gt;&amp;gt;" style="endArrow=open;endSize=12;dashed=1;html=1;rounded=0;" parent="1" source="bwaj0blokZmfMLX8B4m3-9" target="bwaj0blokZmfMLX8B4m3-22" edge="1">
          <mxGeometry width="160" relative="1" as="geometry">
            <mxPoint x="565" y="332" as="sourcePoint" />
            <mxPoint x="690" y="289" as="targetPoint" />
          </mxGeometry>
        </mxCell>
        <mxCell id="bwaj0blokZmfMLX8B4m3-44" value="" style="group" parent="1" vertex="1" connectable="0">
          <mxGeometry x="230" y="470" width="170" height="90" as="geometry" />
        </mxCell>
        <mxCell id="bwaj0blokZmfMLX8B4m3-45" value="" style="ellipse;whiteSpace=wrap;html=1;" parent="bwaj0blokZmfMLX8B4m3-44" vertex="1">
          <mxGeometry x="10" width="150" height="90" as="geometry" />
        </mxCell>
        <mxCell id="bwaj0blokZmfMLX8B4m3-46" value="Sélectionner le dossier&amp;nbsp;&lt;div&gt;d&#39;une personne&lt;/div&gt;" style="text;strokeColor=none;fillColor=none;align=center;verticalAlign=middle;spacingLeft=4;spacingRight=4;overflow=hidden;points=[[0,0.5],[1,0.5]];portConstraint=eastwest;rotatable=0;whiteSpace=wrap;html=1;" parent="bwaj0blokZmfMLX8B4m3-44" vertex="1">
          <mxGeometry y="30" width="170" height="30" as="geometry" />
        </mxCell>
        <mxCell id="bwaj0blokZmfMLX8B4m3-47" value="" style="group" parent="1" vertex="1" connectable="0">
          <mxGeometry x="740" y="470" width="170" height="90" as="geometry" />
        </mxCell>
        <mxCell id="bwaj0blokZmfMLX8B4m3-48" value="" style="ellipse;whiteSpace=wrap;html=1;" parent="bwaj0blokZmfMLX8B4m3-47" vertex="1">
          <mxGeometry x="10" width="150" height="90" as="geometry" />
        </mxCell>
        <mxCell id="bwaj0blokZmfMLX8B4m3-49" value=" Personnaliser le&lt;div&gt;courrier&lt;/div&gt;" style="text;strokeColor=none;fillColor=none;align=center;verticalAlign=middle;spacingLeft=4;spacingRight=4;overflow=hidden;points=[[0,0.5],[1,0.5]];portConstraint=eastwest;rotatable=0;whiteSpace=wrap;html=1;" parent="bwaj0blokZmfMLX8B4m3-47" vertex="1">
          <mxGeometry y="30" width="170" height="30" as="geometry" />
        </mxCell>
        <mxCell id="rdwlHiR3kODwmM8puWaT-1" value="" style="endArrow=classic;html=1;rounded=0;" edge="1" parent="1" source="bwaj0blokZmfMLX8B4m3-19" target="bwaj0blokZmfMLX8B4m3-10">
          <mxGeometry width="50" height="50" relative="1" as="geometry">
            <mxPoint x="580" y="430" as="sourcePoint" />
            <mxPoint x="630" y="380" as="targetPoint" />
          </mxGeometry>
        </mxCell>
        <mxCell id="rdwlHiR3kODwmM8puWaT-2" value="" style="endArrow=classic;html=1;rounded=0;" edge="1" parent="1" source="bwaj0blokZmfMLX8B4m3-1" target="bwaj0blokZmfMLX8B4m3-19">
          <mxGeometry width="50" height="50" relative="1" as="geometry">
            <mxPoint x="580" y="430" as="sourcePoint" />
            <mxPoint x="630" y="380" as="targetPoint" />
          </mxGeometry>
        </mxCell>
        <mxCell id="rdwlHiR3kODwmM8puWaT-3" value="" style="endArrow=classic;html=1;rounded=0;" edge="1" parent="1" target="bwaj0blokZmfMLX8B4m3-45">
          <mxGeometry width="50" height="50" relative="1" as="geometry">
            <mxPoint x="120" y="370" as="sourcePoint" />
            <mxPoint x="270" y="367" as="targetPoint" />
          </mxGeometry>
        </mxCell>
        <mxCell id="rdwlHiR3kODwmM8puWaT-4" value="" style="endArrow=classic;html=1;rounded=0;" edge="1" parent="1" source="bwaj0blokZmfMLX8B4m3-45" target="bwaj0blokZmfMLX8B4m3-11">
          <mxGeometry width="50" height="50" relative="1" as="geometry">
            <mxPoint x="130" y="380" as="sourcePoint" />
            <mxPoint x="278" y="490" as="targetPoint" />
          </mxGeometry>
        </mxCell>
        <mxCell id="rdwlHiR3kODwmM8puWaT-6" value="&amp;lt;&amp;lt;include&amp;gt;&amp;gt;" style="endArrow=open;endSize=12;dashed=1;html=1;rounded=0;exitX=0.124;exitY=-0.1;exitDx=0;exitDy=0;exitPerimeter=0;" edge="1" parent="1" source="bwaj0blokZmfMLX8B4m3-49" target="bwaj0blokZmfMLX8B4m3-11">
          <mxGeometry width="160" relative="1" as="geometry">
            <mxPoint x="613" y="199" as="sourcePoint" />
            <mxPoint x="602" y="261" as="targetPoint" />
          </mxGeometry>
        </mxCell>
      </root>
    </mxGraphModel>
  </diagram>
</mxfile>
